<?xml version="1.0" encoding="UTF-8" standalone="no"?><!DOCTYPE svg PUBLIC "-//W3C//DTD SVG 1.1//EN" "http://www.w3.org/Graphics/SVG/1.1/DTD/svg11.dtd"><svg width="100%" height="100%" viewBox="0 0 256 256" version="1.1" xmlns="http://www.w3.org/2000/svg" xmlns:xlink="http://www.w3.org/1999/xlink" xml:space="preserve" xmlns:serif="http://www.serif.com/" style="fill-rule:evenodd;clip-rule:evenodd;stroke-linejoin:round;stroke-miterlimit:2;"><g><clipPath id="_clip1"><path d="M230,40l0,176c0,7.727 -6.273,14 -14,14l-176,0c-7.727,0 -14,-6.273 -14,-14l0,-176c0,-7.727 6.273,-14 14,-14l176,0c7.727,0 14,6.273 14,14Z"/></clipPath><g clip-path="url(#_clip1)"><path d="M230,40l0,176c0,7.727 -6.273,14 -14,14l-176,0c-7.727,0 -14,-6.273 -14,-14l0,-176c0,-7.727 6.273,-14 14,-14l176,0c7.727,0 14,6.273 14,14Z" style="fill:#ebebeb;"/><rect x="26" y="26" width="34" height="34" style="fill:#ebebeb;"/><rect x="26" y="94" width="34" height="34" style="fill:#ebebeb;"/><rect x="26" y="162" width="34" height="34" style="fill:#ebebeb;"/><rect x="196" y="60" width="34" height="34" style="fill:#ebebeb;"/><rect x="196" y="128" width="34" height="34" style="fill:#ebebeb;"/><rect x="196" y="196" width="34" height="34" style="fill:#ebebeb;"/><rect x="94" y="26" width="34" height="34" style="fill:#ebebeb;"/><rect x="94" y="94" width="34" height="34" style="fill:#ebebeb;"/><rect x="94" y="162" width="34" height="34" style="fill:#ebebeb;"/><rect x="128" y="60" width="34" height="34" style="fill:#ebebeb;"/><rect x="128" y="128" width="34" height="34" style="fill:#ebebeb;"/><rect x="128" y="196" width="34" height="34" style="fill:#ebebeb;"/><rect x="162" y="26" width="34" height="34" style="fill:#ebebeb;"/><rect x="162" y="94" width="34" height="34" style="fill:#ebebeb;"/><rect x="162" y="162" width="34" height="34" style="fill:#ebebeb;"/><rect x="60" y="60" width="34" height="34" style="fill:#ebebeb;"/><rect x="60" y="128" width="34" height="34" style="fill:#ebebeb;"/><rect x="60" y="196" width="34" height="34" style="fill:#ebebeb;"/><rect x="60" y="26" width="34" height="34" style="fill:#afb5be;"/><rect x="60" y="94" width="34" height="34" style="fill:#afb5be;"/><rect x="60" y="162" width="34" height="34" style="fill:#afb5be;"/><rect x="162" y="60" width="34" height="34" style="fill:#afb5be;"/><rect x="162" y="128" width="34" height="34" style="fill:#afb5be;"/><rect x="162" y="196" width="34" height="34" style="fill:#afb5be;"/><rect x="128" y="26" width="34" height="34" style="fill:#afb5be;"/><rect x="128" y="94" width="34" height="34" style="fill:#afb5be;"/><rect x="128" y="162" width="34" height="34" style="fill:#afb5be;"/><rect x="94" y="60" width="34" height="34" style="fill:#afb5be;"/><rect x="94" y="128" width="34" height="34" style="fill:#afb5be;"/><rect x="94" y="196" width="34" height="34" style="fill:#afb5be;"/><rect x="196" y="26" width="34" height="34" style="fill:#afb5be;"/><rect x="196" y="94" width="34" height="34" style="fill:#afb5be;"/><rect x="196" y="162" width="34" height="34" style="fill:#afb5be;"/><rect x="26" y="60" width="34" height="34" style="fill:#afb5be;"/><rect x="26" y="128" width="34" height="34" style="fill:#afb5be;"/><rect x="26" y="196" width="34" height="34" style="fill:#afb5be;"/><path d="M256,68l-188,188l188,0l0,-188Z" style="fill:#f3f3f3;"/><circle cx="162" cy="162" r="51" style="fill:#f67067;"/></g></g></svg>